<svg width="35" height="10" viewBox="0 0 35 10" fill="none" xmlns="http://www.w3.org/2000/svg">
<path d="M5.464 9.164C5.344 9.164 5.228 9.132 5.116 9.068C5.004 9.004 4.948 8.932 4.948 8.852C4.948 8.644 5.176 7.628 5.632 5.804L6.388 2.768C6.468 2.472 6.508 2.192 6.508 1.928C6.508 1.024 6.028 0.572 5.068 0.572C4.908 0.572 4.736 0.584 4.552 0.607999C3.56 0.751999 2.796 1.176 2.26 1.88C1.796 2.472 1.564 3.172 1.564 3.98C1.564 4.988 1.896 5.492 2.56 5.492C3.088 5.492 3.744 5.152 4.528 4.472C4.576 4.44 4.612 4.424 4.636 4.424C4.692 4.424 4.72 4.452 4.72 4.508C4.72 4.556 4.692 4.604 4.636 4.652C3.716 5.452 2.924 5.852 2.26 5.852C1.836 5.852 1.5 5.692 1.252 5.372C0.988 5.02 0.856 4.548 0.856 3.956C0.856 3.084 1.192 2.3 1.864 1.604C2.624 0.819999 3.592 0.38 4.768 0.284C4.824 0.276 4.876 0.271999 4.924 0.271999C4.972 0.271999 5.024 0.271999 5.08 0.271999C5.76 0.271999 6.272 0.467999 6.616 0.86C6.912 1.188 7.06 1.628 7.06 2.18C7.06 2.3 7.052 2.42 7.036 2.54C7.028 2.66 7.008 2.78 6.976 2.9L6.352 5.288C6.008 6.64 5.756 7.744 5.596 8.6L5.908 8.3C6.14 8.068 6.52 7.664 7.048 7.088C7.576 6.504 8.248 5.752 9.064 4.832C9.696 4.128 10.244 3.54 10.708 3.068C11.18 2.588 11.576 2.224 11.896 1.976C12.696 1.344 13.256 1.028 13.576 1.028C13.776 1.028 13.9 1.204 13.948 1.556V1.592C13.916 1.472 13.816 1.412 13.648 1.412C13.432 1.412 13.128 1.524 12.736 1.748C12.416 1.924 11.976 2.284 11.416 2.828C10.864 3.372 10.188 4.096 9.388 5C8.364 6.16 7.54 7.084 6.916 7.772C6.3 8.452 5.88 8.896 5.656 9.104C5.616 9.144 5.552 9.164 5.464 9.164ZM13.7797 3.788C13.6517 3.804 13.5117 3.788 13.3597 3.74C13.2157 3.692 13.1437 3.632 13.1437 3.56C13.1437 3.512 13.1597 3.464 13.1917 3.416C13.2237 3.36 13.2637 3.304 13.3117 3.248C13.4477 3.08 13.5277 2.976 13.5517 2.936C13.5757 2.888 13.6197 2.864 13.6837 2.864C13.8677 2.864 14.0117 2.952 14.1157 3.128C14.1237 3.136 14.1277 3.152 14.1277 3.176C14.1277 3.248 14.0877 3.352 14.0077 3.488C13.9037 3.68 13.8277 3.78 13.7797 3.788ZM11.9677 8.12C11.5037 8.016 11.2717 7.832 11.2717 7.568C11.2717 7.44 11.4277 6.988 11.7397 6.212C11.8277 6.06 11.9437 5.84 12.0877 5.552C12.2397 5.256 12.4277 4.896 12.6517 4.472C12.6917 4.408 12.7797 4.376 12.9157 4.376C13.0357 4.376 13.1517 4.396 13.2637 4.436C13.3837 4.468 13.4317 4.5 13.4077 4.532C12.3517 6.028 11.8237 7.064 11.8237 7.64C11.8237 7.808 11.8797 7.892 11.9917 7.892C12.2077 7.892 12.5477 7.74 13.0117 7.436C13.5637 7.06 14.0277 6.608 14.4037 6.08C14.4837 5.952 14.5637 5.888 14.6437 5.888C14.6677 5.888 14.6797 5.9 14.6797 5.924C14.6797 5.964 14.6437 6.04 14.5717 6.152C14.2197 6.704 13.7317 7.192 13.1077 7.616C12.5477 8 12.1677 8.168 11.9677 8.12ZM14.9142 8.492C14.8822 8.492 14.8662 8.48 14.8662 8.456C14.8662 8.352 15.1382 8.16 15.6822 7.88C15.8182 7.816 15.9422 7.752 16.0542 7.688C16.1662 7.616 16.2622 7.552 16.3422 7.496C16.8302 7.136 17.0742 6.824 17.0742 6.56C17.0742 6.36 16.8782 6.26 16.4862 6.26C15.5742 6.244 15.1182 6.044 15.1182 5.66C15.1182 5.492 15.1902 5.332 15.3342 5.18C15.5022 4.988 15.7822 4.804 16.1742 4.628C16.5982 4.436 16.9862 4.34 17.3382 4.34C17.6502 4.34 17.8862 4.416 18.0462 4.568C18.1182 4.64 18.1542 4.728 18.1542 4.832C18.1542 4.944 18.1182 5.044 18.0462 5.132C17.9742 5.22 17.8942 5.264 17.8062 5.264C17.6462 5.264 17.5582 5.156 17.5422 4.94C17.5422 4.788 17.5182 4.7 17.4702 4.676C17.4222 4.652 17.2942 4.64 17.0862 4.64C16.8222 4.64 16.5262 4.728 16.1982 4.904C15.8062 5.104 15.6222 5.344 15.6462 5.624C15.6622 5.784 15.9662 5.864 16.5582 5.864C17.3662 5.864 17.7702 6.06 17.7702 6.452C17.7702 6.876 17.4222 7.3 16.7262 7.724C16.2862 7.996 15.7502 8.236 15.1182 8.444C15.0302 8.476 14.9622 8.492 14.9142 8.492ZM21.9625 8.12C21.7865 8.136 21.6185 8.092 21.4585 7.988C21.2985 7.876 21.2185 7.752 21.2185 7.616C21.2185 7.368 21.4545 6.892 21.9265 6.188C22.4465 5.404 22.7065 4.952 22.7065 4.832C22.7065 4.76 22.6665 4.724 22.5865 4.724C22.3785 4.724 21.9785 5.032 21.3865 5.648C21.0345 6 20.7025 6.38 20.3905 6.788C20.0865 7.188 19.7985 7.612 19.5265 8.06C19.5105 8.076 19.4665 8.084 19.3945 8.084C19.0425 8.084 18.8825 8.036 18.9145 7.94C19.0505 7.572 19.2225 7.16 19.4305 6.704C19.6385 6.248 19.8865 5.74 20.1745 5.18C21.1265 3.34 21.7745 2.288 22.1185 2.024C22.2145 1.952 22.3465 1.916 22.5145 1.916C22.7945 1.916 22.9345 1.972 22.9345 2.084C22.9345 2.108 22.9105 2.14 22.8625 2.18C21.8145 2.956 20.8865 4.416 20.0785 6.56C20.0865 6.552 20.1265 6.516 20.1985 6.452C20.2785 6.38 20.3905 6.276 20.5345 6.14C20.6865 6.004 20.8145 5.88 20.9185 5.768C21.0305 5.648 21.1265 5.544 21.2065 5.456C21.5985 5.016 22.0305 4.688 22.5025 4.472C22.6145 4.424 22.7425 4.4 22.8865 4.4C23.2145 4.4 23.3785 4.52 23.3785 4.76C23.3785 4.912 23.3025 5.092 23.1505 5.3C22.2865 6.508 21.8545 7.32 21.8545 7.736C21.8545 7.824 21.8825 7.88 21.9385 7.904C22.0665 7.96 22.3825 7.828 22.8865 7.508C23.4785 7.124 23.9825 6.648 24.3985 6.08C24.4865 5.96 24.5665 5.9 24.6385 5.9C24.6625 5.9 24.6745 5.908 24.6745 5.924C24.6745 5.964 24.6385 6.04 24.5665 6.152C24.2145 6.704 23.7265 7.192 23.1025 7.616C22.5425 7.984 22.1625 8.152 21.9625 8.12ZM27.3114 8.12C27.1354 8.136 26.9674 8.092 26.8074 7.988C26.6474 7.876 26.5674 7.752 26.5674 7.616C26.5674 7.368 26.8034 6.892 27.2754 6.188C27.7954 5.412 28.0554 4.964 28.0554 4.844C28.0554 4.772 28.0194 4.732 27.9474 4.724C27.7154 4.74 27.3554 4.972 26.8674 5.42C26.1714 6.068 25.5194 6.948 24.9114 8.06C24.8954 8.076 24.8514 8.084 24.7794 8.084C24.4354 8.084 24.2794 8.036 24.3114 7.94C24.3994 7.708 24.5514 7.36 24.7674 6.896C24.9914 6.432 25.2794 5.848 25.6314 5.144C25.8714 4.672 26.1154 4.436 26.3634 4.436C26.4434 4.436 26.4954 4.456 26.5194 4.496C26.5354 4.52 26.3674 4.864 26.0154 5.528C25.8474 5.848 25.7154 6.104 25.6194 6.296C25.5234 6.48 25.4554 6.6 25.4154 6.656C25.5514 6.52 25.7114 6.352 25.8954 6.152C26.0874 5.952 26.3074 5.72 26.5554 5.456C26.9474 5.016 27.3794 4.688 27.8514 4.472C27.9634 4.424 28.0914 4.4 28.2354 4.4C28.5634 4.4 28.7274 4.52 28.7274 4.76C28.7274 4.912 28.6514 5.092 28.4994 5.3C27.6354 6.508 27.2034 7.32 27.2034 7.736C27.2034 7.824 27.2314 7.88 27.2874 7.904C27.4154 7.96 27.7314 7.828 28.2354 7.508C28.8274 7.124 29.3314 6.648 29.7474 6.08C29.8354 5.96 29.9154 5.9 29.9874 5.9C30.0114 5.9 30.0234 5.908 30.0234 5.924C30.0234 5.964 29.9874 6.04 29.9154 6.152C29.5634 6.704 29.0754 7.192 28.4514 7.616C27.8914 7.984 27.5114 8.152 27.3114 8.12ZM32.3866 8.084C32.1786 8.036 31.9826 7.924 31.7986 7.748C31.7586 7.708 31.7386 7.648 31.7386 7.568C31.7386 7.248 31.8826 6.8 32.1706 6.224C31.9466 6.512 31.7626 6.748 31.6186 6.932C31.4746 7.116 31.3666 7.248 31.2946 7.328C30.9826 7.688 30.7226 7.904 30.5146 7.976C30.4426 8 30.3706 8.012 30.2986 8.012C30.0026 8.012 29.8306 7.892 29.7826 7.652C29.7506 7.58 29.7346 7.48 29.7346 7.352C29.7346 6.96 29.9946 6.212 30.5146 5.108C30.6346 4.852 30.7706 4.724 30.9226 4.724C31.0346 4.724 31.1426 4.808 31.2466 4.976L30.7426 5.972C30.5666 6.316 30.4306 6.612 30.3346 6.86C30.2466 7.108 30.2026 7.3 30.2026 7.436C30.2026 7.628 30.2666 7.724 30.3946 7.724C30.6026 7.724 30.9386 7.456 31.4026 6.92C31.6506 6.632 31.8906 6.312 32.1226 5.96C32.3626 5.608 32.5986 5.224 32.8306 4.808C32.8786 4.712 32.9506 4.664 33.0466 4.664C33.1266 4.664 33.2026 4.7 33.2746 4.772C33.3546 4.836 33.3866 4.884 33.3706 4.916C32.5946 6.524 32.2066 7.448 32.2066 7.688C32.2066 7.784 32.2386 7.824 32.3026 7.808C32.9506 7.752 33.6466 7.18 34.3906 6.092C34.4306 6.02 34.4746 5.98 34.5226 5.972C34.5706 5.956 34.5946 5.972 34.5946 6.02C34.5946 6.052 34.5786 6.096 34.5466 6.152C34.1946 6.704 33.7746 7.188 33.2866 7.604C32.8546 7.964 32.5546 8.124 32.3866 8.084Z" fill="white"/>
</svg>
